<svg width="207" height="42" viewBox="0 0 207 42" fill="none" xmlns="http://www.w3.org/2000/svg">
<circle cx="21" cy="21" r="20.15" fill="#F7F7FC" stroke="#8E8E8E" stroke-width="0.3"/>
<path d="M27 11H24C22.6739 11 21.4021 11.5268 20.4645 12.4645C19.5268 13.4021 19 14.6739 19 16V19H16V23H19V31H23V23H26L27 19H23V16C23 15.7348 23.1054 15.4804 23.2929 15.2929C23.4804 15.1054 23.7348 15 24 15H27V11Z" stroke="#3A643B" stroke-linecap="round" stroke-linejoin="round"/>
<circle cx="76" cy="21" r="20.15" fill="#F7F7FC" stroke="#8E8E8E" stroke-width="0.3"/>
<path d="M81 11H71C68.2386 11 66 13.2386 66 16V26C66 28.7614 68.2386 31 71 31H81C83.7614 31 86 28.7614 86 26V16C86 13.2386 83.7614 11 81 11Z" stroke="#3A643B" stroke-linecap="round" stroke-linejoin="round"/>
<path d="M79.9997 20.3703C80.1231 21.2025 79.981 22.0525 79.5935 22.7993C79.206 23.5461 78.5929 24.1517 77.8413 24.53C77.0898 24.9082 76.2382 25.0399 75.4075 24.9062C74.5768 24.7726 73.8095 24.3804 73.2145 23.7855C72.6196 23.1905 72.2274 22.4232 72.0938 21.5925C71.9601 20.7619 72.0918 19.9102 72.47 19.1587C72.8483 18.4072 73.4539 17.794 74.2007 17.4065C74.9475 17.019 75.7975 16.8769 76.6297 17.0003C77.4786 17.1262 78.2646 17.5218 78.8714 18.1286C79.4782 18.7355 79.8738 19.5214 79.9997 20.3703Z" stroke="#3A643B" stroke-linecap="round" stroke-linejoin="round"/>
<path d="M81.5 15.5H81.51" stroke="#3A643B" stroke-width="2" stroke-linecap="round" stroke-linejoin="round"/>
<circle cx="131" cy="21" r="20.15" fill="#F7F7FC" stroke="#8E8E8E" stroke-width="0.3"/>
<path d="M141.541 15.42C141.422 14.9454 141.18 14.5106 140.839 14.1594C140.499 13.8082 140.071 13.5532 139.601 13.42C137.881 13 131.001 13 131.001 13C131.001 13 124.121 13 122.401 13.46C121.93 13.5932 121.503 13.8482 121.162 14.1994C120.821 14.5506 120.579 14.9854 120.461 15.46C120.146 17.2056 119.992 18.9763 120.001 20.75C119.989 22.537 120.143 24.3213 120.461 26.08C120.592 26.5398 120.839 26.9581 121.179 27.2945C121.519 27.6308 121.939 27.8738 122.401 28C124.121 28.46 131.001 28.46 131.001 28.46C131.001 28.46 137.881 28.46 139.601 28C140.071 27.8668 140.499 27.6118 140.839 27.2606C141.18 26.9094 141.422 26.4746 141.541 26C141.853 24.2676 142.007 22.5103 142.001 20.75C142.012 18.963 141.858 17.1787 141.541 15.42Z" stroke="#3A643B" stroke-linecap="round" stroke-linejoin="round"/>
<path d="M128.75 24.0205L134.5 20.7505L128.75 17.4805V24.0205Z" stroke="#3A643B" stroke-linecap="round" stroke-linejoin="round"/>
<circle cx="186" cy="21" r="20.15" fill="#F7F7FC" stroke="#8E8E8E" stroke-width="0.3"/>
<path d="M198 13.0101C197.042 13.6855 195.982 14.2022 194.86 14.5401C194.258 13.8476 193.457 13.3567 192.567 13.134C191.677 12.9112 190.739 12.9673 189.882 13.2945C189.025 13.6218 188.288 14.2045 187.773 14.9638C187.258 15.7231 186.988 16.6224 187 17.5401V18.5401C185.243 18.5856 183.501 18.1959 181.931 17.4055C180.361 16.6151 179.01 15.4487 178 14.0101C178 14.0101 174 23.0101 183 27.0101C180.941 28.408 178.487 29.109 176 29.0101C185 34.0101 196 29.0101 196 17.5101C195.999 17.2315 195.972 16.9537 195.92 16.6801C196.941 15.6735 197.661 14.4028 198 13.0101Z" stroke="#3A643B" stroke-linecap="round" stroke-linejoin="round"/>
</svg>
