<svg width="107" height="22" viewBox="0 0 107 22" fill="none" xmlns="http://www.w3.org/2000/svg">
<path d="M8.74 15.605C8.5 15.605 8.31 15.54 8.17 15.41C8.03 15.27 7.96 15.08 7.96 14.84V13.355H3.94C3.69 13.355 3.49 13.3 3.34 13.19C3.19 13.08 3.115 12.91 3.115 12.68C3.115 12.55 3.145 12.41 3.205 12.26C3.275 12.11 3.395 11.915 3.565 11.675L7.93 5.33C8.04 5.16 8.165 5.035 8.305 4.955C8.445 4.865 8.605 4.82 8.785 4.82C8.995 4.82 9.165 4.885 9.295 5.015C9.435 5.135 9.505 5.325 9.505 5.585V12.05H10.45C10.69 12.05 10.865 12.105 10.975 12.215C11.095 12.325 11.155 12.485 11.155 12.695C11.155 12.915 11.095 13.08 10.975 13.19C10.865 13.3 10.69 13.355 10.45 13.355H9.505V14.84C9.505 15.08 9.435 15.27 9.295 15.41C9.165 15.54 8.98 15.605 8.74 15.605ZM7.96 12.05V6.755H8.365L4.45 12.47V12.05H7.96ZM13.1441 15.56C12.8541 15.56 12.6191 15.47 12.4391 15.29C12.2591 15.11 12.1691 14.88 12.1691 14.6C12.1691 14.32 12.2591 14.095 12.4391 13.925C12.6191 13.745 12.8541 13.655 13.1441 13.655C13.4341 13.655 13.6641 13.745 13.8341 13.925C14.0041 14.095 14.0891 14.32 14.0891 14.6C14.0891 14.88 14.0041 15.11 13.8341 15.29C13.6641 15.47 13.4341 15.56 13.1441 15.56ZM16.7187 15.5C16.4487 15.5 16.2537 15.44 16.1337 15.32C16.0137 15.19 15.9537 15.015 15.9537 14.795C15.9537 14.655 15.9887 14.52 16.0587 14.39C16.1287 14.26 16.2287 14.125 16.3587 13.985L19.5537 10.565C20.0437 10.045 20.3937 9.57 20.6037 9.14C20.8237 8.7 20.9337 8.26 20.9337 7.82C20.9337 7.26 20.7637 6.835 20.4237 6.545C20.0837 6.255 19.5837 6.11 18.9237 6.11C18.5237 6.11 18.1387 6.17 17.7687 6.29C17.3987 6.41 17.0287 6.605 16.6587 6.875C16.5087 6.975 16.3687 7.02 16.2387 7.01C16.1087 7 15.9937 6.95 15.8937 6.86C15.8037 6.77 15.7437 6.66 15.7137 6.53C15.6837 6.4 15.6887 6.265 15.7287 6.125C15.7687 5.985 15.8637 5.865 16.0137 5.765C16.4237 5.455 16.8987 5.215 17.4387 5.045C17.9787 4.875 18.5287 4.79 19.0887 4.79C19.8187 4.79 20.4337 4.905 20.9337 5.135C21.4437 5.355 21.8287 5.68 22.0887 6.11C22.3487 6.54 22.4787 7.065 22.4787 7.685C22.4787 8.105 22.4087 8.515 22.2687 8.915C22.1387 9.315 21.9337 9.725 21.6537 10.145C21.3837 10.555 21.0287 10.99 20.5887 11.45L17.5587 14.63V14.195H22.3287C22.5487 14.195 22.7187 14.25 22.8387 14.36C22.9587 14.47 23.0187 14.63 23.0187 14.84C23.0187 15.05 22.9587 15.215 22.8387 15.335C22.7187 15.445 22.5487 15.5 22.3287 15.5H16.7187Z" fill="#626262"/>
<path d="M35.7477 3.23357C36.0539 2.60547 36.9489 2.60547 37.2552 3.23357L38.8828 6.57212C39.004 6.82079 39.2401 6.99366 39.5137 7.03416L43.1719 7.57554C43.8561 7.6768 44.1304 8.51637 43.6379 9.00209L40.979 11.6242C40.7842 11.8163 40.6954 12.0915 40.7411 12.3613L41.3666 16.0539C41.4829 16.7403 40.7603 17.2613 40.1457 16.9341L36.8955 15.2035C36.6492 15.0723 36.3537 15.0723 36.1073 15.2035L32.8571 16.9341C32.2426 17.2613 31.52 16.7403 31.6363 16.0539L32.2618 12.3613C32.3075 12.0915 32.2186 11.8163 32.0238 11.6242L29.365 9.00209C28.8724 8.51637 29.1467 7.6768 29.831 7.57554L33.4891 7.03416C33.7628 6.99366 33.9989 6.82079 34.1201 6.57212L35.7477 3.23357Z" fill="#F79624"/>
<path d="M54.2477 3.23357C54.5539 2.60547 55.4489 2.60547 55.7552 3.23357L57.3828 6.57212C57.504 6.82079 57.7401 6.99366 58.0137 7.03416L61.6719 7.57554C62.3561 7.6768 62.6304 8.51637 62.1379 9.00209L59.479 11.6242C59.2842 11.8163 59.1954 12.0915 59.2411 12.3613L59.8666 16.0539C59.9829 16.7403 59.2603 17.2613 58.6457 16.9341L55.3955 15.2035C55.1492 15.0723 54.8537 15.0723 54.6073 15.2035L51.3571 16.9341C50.7426 17.2613 50.02 16.7403 50.1363 16.0539L50.7618 12.3613C50.8075 12.0915 50.7186 11.8163 50.5238 11.6242L47.865 9.00209C47.3724 8.51637 47.6467 7.6768 48.331 7.57554L51.9891 7.03416C52.2628 6.99366 52.4989 6.82079 52.6201 6.57212L54.2477 3.23357Z" fill="#F79624"/>
<path d="M74.2477 3.23357C74.5539 2.60547 75.4489 2.60547 75.7552 3.23357L77.3828 6.57212C77.504 6.82079 77.7401 6.99366 78.0137 7.03416L81.6719 7.57554C82.3561 7.6768 82.6304 8.51637 82.1379 9.00209L79.479 11.6242C79.2842 11.8163 79.1954 12.0915 79.2411 12.3613L79.8666 16.0539C79.9829 16.7403 79.2603 17.2613 78.6457 16.9341L75.3955 15.2035C75.1492 15.0723 74.8537 15.0723 74.6073 15.2035L71.3571 16.9341C70.7426 17.2613 70.02 16.7403 70.1363 16.0539L70.7618 12.3613C70.8075 12.0915 70.7186 11.8163 70.5238 11.6242L67.865 9.00209C67.3724 8.51637 67.6467 7.6768 68.331 7.57554L71.9891 7.03416C72.2628 6.99366 72.4989 6.82079 72.6201 6.57212L74.2477 3.23357Z" fill="#F79624"/>
<path d="M94.2477 3.23357C94.5539 2.60547 95.4489 2.60547 95.7552 3.23357L97.3828 6.57212C97.504 6.82079 97.7401 6.99366 98.0137 7.03416L101.672 7.57554C102.356 7.6768 102.63 8.51637 102.138 9.00209L99.479 11.6242C99.2842 11.8163 99.1954 12.0915 99.2411 12.3613L99.8666 16.0539C99.9829 16.7403 99.2603 17.2613 98.6457 16.9341L95.3955 15.2035C95.1492 15.0723 94.8537 15.0723 94.6073 15.2035L91.3571 16.9341C90.7426 17.2613 90.02 16.7403 90.1363 16.0539L90.7618 12.3613C90.8075 12.0915 90.7186 11.8163 90.5238 11.6242L87.865 9.00209C87.3724 8.51637 87.6467 7.6768 88.331 7.57554L91.9891 7.03416C92.2628 6.99366 92.4989 6.82079 92.6201 6.57212L94.2477 3.23357Z" fill="#F79624"/>
</svg>
